PathFileType	4	(X/Y/Z)	C:\Users\°ÂÌØÂü\Desktop\20210112\bx_n_0_503-Unnamed.trc
DataRate	CameraRate	NumFrames	NumMarkers	Units	OrigDataRate	OrigDataStartFrame	OrigNumFrames
50.00	50.00	       7	0	mm	50.00	84	       333
Frame#	Time	
		

84	1.660	-562.93103	127.17406	1841.12378	-640.07013	295.87552	1530.15918	-596.32874	-1.49994	1052.35095	-592.25775	-7.20604	803.05426	-694.70923	145.90088	575.21002	-593.64136	225.50826	792.24670	-697.14313	274.14764	744.11310	-730.95538	256.15030	641.77655	-676.89154	206.41719	534.54742	-766.56824	261.76971	500.67087	-517.52472	-72.75541	143.36684	-697.55975	74.21561	572.32434	-549.40613	-24.38384	164.51849	-675.47699	52.27580	160.38435	-795.46655	180.29399	184.79674	-765.07623	227.59419	205.32367	-588.70343	207.91280	174.56860	-882.49896	295.95609	144.54916	-552.61572	243.21423	166.07841	-652.67053	292.11832	156.64134	-615.39874	297.83887	158.52104	-528.22528	304.04181	146.51495	-617.35248	-65.67357	1537.97717	-799.66467	99.34487	1068.04175	-793.02600	38.54042	175.23792	-764.60620	-44.99260	489.74136	-600.89410	27.42117	168.26120	-876.01019	-78.97449	141.37619	-670.28046	-69.36596	874.12811	-690.91968	-60.55591	758.06268				-713.73218	-34.80214	615.51483	-721.23663	-32.99721	569.95978	-714.85480	151.08293	217.82652	-675.53369	166.33267	158.29671	-606.19543	-72.54730	157.99039	-649.22131	-68.37899	160.98735	-760.34583	-20.30474	206.71751	-671.27216	13.68238	520.53412	-557.75439	114.46958	1339.67004	-719.95471	68.16338	216.87387	-602.75079	245.01155	1062.24341	-689.49677	287.73367	873.74670				-728.36499	250.25410	575.71857	
85	1.680	-557.69733	127.03746	1840.09277	-636.87494	296.39761	1530.05127	-597.69635	-1.59007	1051.93201	-593.84778	-6.87599	802.76068	-695.47070	145.74390	575.23578	-595.10864	225.64619	792.23853	-698.43622	273.65601	743.57117	-732.08655	256.34885	641.60126	-677.89160	206.41267	534.58398	-767.18658	261.88232	500.69321	-517.58130	-72.88100	143.49907	-697.26422	74.07384	572.30145	-549.43860	-24.33549	164.43492	-675.38898	52.25429	160.51546	-795.40717	180.04787	184.42085	-765.15710	227.56421	205.28775	-589.27173	208.14561	174.22240	-882.48578	296.13718	144.66689	-552.63702	243.10767	165.96788	-652.66156	292.06726	156.35408	-615.42804	298.00906	158.45799	-528.37347	304.09973	146.41521	-614.54089	-65.91140	1537.49866	-801.29053	99.58173	1068.94397	-793.12146	38.73985	175.07750	-765.86932	-44.72984	489.40012	-600.76776	27.56487	168.14502	-875.85034	-78.68372	141.27127	-671.83118	-69.24947	873.74878	-692.03503	-60.55521	757.94049				-714.65625	-35.21777	615.57904	-722.06427	-32.64713	569.83246	-714.96936	151.20435	217.74107	-675.51178	166.46898	158.40184	-606.43646	-72.50200	158.15570	-649.02997	-68.16810	160.83745	-760.51941	-20.31003	206.51924	-671.95776	13.69905	520.45044	-556.51141	114.43637	1338.57959	-719.99866	68.25005	217.01241	-603.99823	245.05482	1061.76331	-691.15698	287.13388	873.42438				-729.64270	250.05225	575.63336	
86	1.700	-552.25531	127.33302	1839.12744	-633.26343	296.63873	1529.31946	-598.86139	-1.76312	1051.92188	-595.44739	-7.31319	803.00964	-696.27148	145.90698	574.92053	-596.25604	226.04797	792.60352	-699.86365	274.58615	743.81354	-733.11554	256.34058	641.74731	-678.73560	206.37823	534.46375	-768.43237	261.86871	500.95874	-517.78961	-72.64210	143.38672	-698.08228	74.11165	572.24396	-549.37714	-24.32985	164.43604	-675.47699	52.27580	160.38435	-795.65540	180.26653	184.80376	-765.36401	227.73714	205.33861	-589.13434	208.00255	174.28864	-882.46899	296.20218	144.70729	-552.74689	243.15744	165.86147	-652.78156	292.13467	156.52573	-615.39874	297.83887	158.52104	-528.07782	304.05066	146.48744	-611.10352	-65.82250	1536.92053	-802.54205	99.14841	1069.58044	-793.25537	38.52906	175.12878	-766.53613	-44.78191	489.71030	-600.89410	27.42117	168.26120	-875.95648	-78.79716	141.44162	-673.50958	-69.15048	873.95636	-693.64673	-60.20567	757.82562				-715.76166	-35.40383	615.99017	-722.97797	-32.89165	569.55872	-714.85480	151.08293	217.82652	-675.52496	166.74582	158.33998	-606.27728	-72.56431	158.11063	-649.14917	-68.25478	160.83043	-760.64478	-20.27100	206.36584	-672.74542	13.78320	520.64508	-554.85107	114.48087	1337.46753	-720.03363	68.34701	217.00412	-605.15710	245.40768	1061.40027	-692.81805	286.88260	873.51715				-730.35809	249.74815	575.20526	
87	1.720	-546.65076	127.17406	1837.83203	-629.80469	296.48404	1529.10400	-600.66235	-1.85214	1051.49731	-597.20209	-7.59964	803.10394	-697.85773	146.17516	574.90723	-597.96942	225.99533	792.42639	-701.47137	274.03006	743.78967	-733.85541	256.10342	641.54529	-679.30566	206.42619	534.45923	-768.91541	261.36679	500.17822	-517.74280	-72.73021	143.24483	-699.46875	74.55811	572.43970	-549.28595	-24.48727	164.68211	-675.38898	52.25429	160.51546	-795.60956	180.28505	184.59212	-765.36658	227.69720	205.29366	-588.78052	207.98479	174.53500	-882.52289	296.28217	144.76390	-552.61578	243.03540	166.04715	-652.67682	292.13269	156.28008	-615.44482	297.95193	158.45911	-528.21887	304.07733	146.44493	-607.77374	-65.62215	1536.13110	-803.72498	99.51307	1070.09839	-793.17834	38.64234	175.01985	-767.01825	-44.45307	489.49173	-600.95691	27.31602	168.14273	-876.04169	-78.95963	141.37299	-675.75439	-69.29124	874.29102	-695.24164	-60.89046	758.45367				-716.39392	-35.08687	615.62170	-724.01031	-33.16553	569.94940	-714.99341	151.58812	217.83334	-675.64874	166.37209	158.50911	-606.24677	-72.70596	158.04779	-649.06470	-68.21162	160.80168	-760.48694	-20.31982	206.29993	-673.80865	13.64521	520.62396	-554.00775	114.38626	1335.91504	-719.94714	68.45893	217.05859	-606.99146	244.65706	1061.00256	-694.32874	286.98599	873.72321				-731.18201	250.52130	575.44165	
88	1.740	-540.79681	127.44385	1836.71204	-626.18726	296.38483	1528.52637	-602.29700	-1.42914	1050.68665	-599.04102	-7.23989	802.89044	-698.33862	146.19257	575.22076	-599.07739	225.89999	792.95331	-702.60297	274.54099	743.73016	-735.49060	256.41452	641.61121	-679.64319	206.40393	534.69647	-769.61444	261.74463	500.52515	-517.65521	-72.83880	143.33253	-700.40472	74.01439	572.14465	-549.26630	-24.51939	164.81448	-675.47699	52.27580	160.38435	-794.87695	180.52794	184.33588	-765.52625	227.82178	205.34367	-589.19794	208.03613	174.23152	-882.57886	296.12268	144.62680	-552.68567	243.19365	165.97015	-652.66156	292.06726	156.35408	-615.49030	297.99036	158.52495	-528.29932	304.12570	146.47157	-604.18097	-65.57734	1535.51611	-805.09814	99.85536	1070.98352	-793.18756	38.47532	175.19046	-768.06018	-44.26042	488.92380	-600.85437	27.42876	168.19189	-875.96130	-78.84709	141.39201	-677.63892	-68.79799	874.10028	-696.93835	-60.90826	758.21027				-717.89819	-35.62326	616.04791	-724.89319	-32.65117	569.47101	-714.99341	151.58812	217.83334	-675.52496	166.74582	158.33998	-606.24493	-72.73899	158.01248	-649.07837	-68.26733	160.75832	-760.71954	-20.45959	206.44498	-674.32233	13.91588	520.58575	-552.46545	114.17888	1334.62451	-720.22070	68.25375	217.07101	-607.96014	244.74303	1060.59631	-696.20612	286.76636	873.71387				-732.49884	250.04723	575.35974	
89	1.760	-534.56458	127.44012	1835.26978	-622.24982	296.06711	1527.82654	-603.86597	-1.68403	1050.59204	-600.85126	-7.53149	803.18640	-699.76154	145.79514	575.23029	-600.99158	226.13014	792.81610	-704.33319	274.76407	743.81824	-736.27789	256.79208	641.81653	-681.13702	206.73962	534.58325	-770.63318	261.82547	500.64841	-517.50812	-72.99480	143.35194	-701.68982	74.06946	572.06488	-549.28363	-24.49098	164.80302	-675.38898	52.25429	160.51546	-795.63177	180.36720	184.67677	-765.52191	227.71451	205.22630	-588.96075	208.07497	174.55611	-882.69727	296.06870	144.54311	-552.66443	243.12138	166.04944	-652.79028	292.01263	156.15871	-615.18640	298.12778	158.63179	-528.21887	304.07733	146.44493	-600.44580	-65.65823	1534.66907	-806.42731	99.81266	1071.58679	-793.21368	38.64124	175.10252	-769.12036	-44.70563	489.45807	-600.97870	27.35179	167.89905	-875.85034	-78.68372	141.27127	-679.81610	-68.90137	874.11328	-698.37750	-60.92525	758.41656				-718.96191	-34.95361	615.83820	-725.66925	-33.15710	570.18573	-714.91101	151.47340	217.87524	-675.31696	166.64709	158.55809	-606.29333	-72.71703	158.16544	-649.14917	-68.25478	160.83043	-760.68268	-20.29350	206.29494	-675.51837	13.89415	520.97131	-551.17664	114.45937	1333.03198	-720.22070	68.25375	217.07101	-609.01672	244.93777	1061.05212	-697.67798	286.52618	873.94189				-733.24847	249.90565	575.10883	
90	1.780	-528.22241	127.86180	1833.58850	-617.99487	296.29736	1527.10144	-605.83606	-1.93806	1050.19421	-602.60864	-7.86819	803.44885	-701.09479	146.04248	574.93982	-602.59955	226.03816	792.84235	-705.59631	274.88245	743.86194	-737.91949	256.61441	641.53168	-681.96039	206.72981	534.72754	-771.54852	262.10956	500.36441	-517.54370	-73.03489	143.32858	-703.21484	74.23354	572.34711	-549.46326	-24.53743	164.64862	-675.50293	52.33958	160.62724	-795.69653	180.64172	184.50362	-765.72144	227.89279	205.42883	-589.13434	208.00255	174.28864	-882.41229	296.21234	144.77406	-552.61578	243.03540	166.04715	-652.67682	292.13269	156.28008	-615.38202	297.89600	158.51991	-528.08173	304.13928	146.43350	-596.52582	-65.63323	1534.02209	-807.91681	99.53954	1072.48779	-793.28204	38.43666	175.10338	-769.88281	-44.85756	489.23267	-601.13074	27.54453	168.21143	-875.95648	-78.79716	141.44162	-681.58832	-68.98193	874.58673	-700.05957	-60.97359	758.32855				-720.24335	-35.55883	615.96606	-727.22437	-32.72141	569.77289	-714.97101	151.28999	217.94647	-675.51178	166.46898	158.40184	-606.23627	-72.76180	158.01089	-649.02411	-68.32413	160.67891	-760.70697	-20.53374	206.34177	-676.41315	13.63369	521.10077	-549.71265	114.37497	1331.70313	-720.34540	68.17432	216.94821	-610.89203	244.83121	1060.78503	-699.27979	287.18451	874.35931				-734.18994	250.55206	575.54889	
